<svg width="416" height="244" viewBox="0 0 416 244" fill="none" xmlns="http://www.w3.org/2000/svg">
<g clip-path="url(#clip0)">
<path d="M209.335 244C322.137 244 413.581 237.47 413.581 229.415C413.581 221.36 322.137 214.83 209.335 214.83C96.533 214.83 5.08908 221.36 5.08908 229.415C5.08908 237.47 96.533 244 209.335 244Z" fill="#F2F2F2"/>
<path d="M201.507 69.7505C168.229 69.7505 144.337 92.7791 144.337 146.512C144.337 207.41 168.229 223.53 201.507 223.53C234.784 223.53 260.1 205.875 260.1 146.512C260.1 83.0559 234.784 69.7505 201.507 69.7505ZM201.725 203.316C178.677 203.316 166.635 188.731 166.635 146.552C166.635 109.335 179.17 89.7086 202.218 89.7086C225.267 89.7086 237.801 102.6 237.801 146.552C237.801 187.668 224.774 203.316 201.725 203.316Z" fill="#2F2E41"/>
<path d="M124.41 181.055H110.652V137.353C110.652 135.032 109.797 132.806 108.275 131.165C106.753 129.523 104.69 128.601 102.538 128.601H99.3137C98.2481 128.601 97.193 128.828 96.2086 129.267C95.2241 129.707 94.3297 130.352 93.5762 131.165C92.8228 131.977 92.2251 132.942 91.8173 134.004C91.4095 135.066 91.1997 136.204 91.1997 137.353V181.055H52.391C51.5926 181.055 50.8078 180.833 50.1127 180.409C49.4175 179.985 48.8357 179.375 48.4236 178.638C48.0115 177.9 47.7832 177.06 47.7607 176.199C47.7382 175.339 47.9224 174.486 48.2954 173.725L89.37 89.8702C89.8821 88.8248 90.1925 87.6782 90.2825 86.4998C90.3724 85.3214 90.2401 84.1356 89.8934 83.0138C89.5467 81.8921 88.9929 80.8578 88.2654 79.9733C87.5379 79.0888 86.6518 78.3725 85.6606 77.8676L83.2358 76.6326C81.3531 75.6736 79.2005 75.532 77.2237 76.2371C75.2468 76.9422 73.5969 78.44 72.6153 80.4206L22.5194 181.504C21.6663 183.225 21.22 185.147 21.22 187.099V187.099C21.22 188.657 21.5046 190.2 22.0575 191.64C22.6104 193.08 23.4209 194.388 24.4426 195.49C25.4642 196.592 26.6771 197.467 28.012 198.063C29.3469 198.659 30.7776 198.966 32.2225 198.966H91.1997V226.601C91.1997 227.978 91.4512 229.342 91.94 230.615C92.4288 231.888 93.1452 233.045 94.0483 234.019C94.9515 234.993 96.0237 235.766 97.2037 236.293C98.3837 236.82 99.6484 237.091 100.926 237.091H100.926C102.203 237.091 103.468 236.82 104.648 236.293C105.828 235.766 106.9 234.993 107.803 234.019C108.706 233.045 109.423 231.888 109.911 230.615C110.4 229.342 110.652 227.978 110.652 226.601V198.966H124.41C126.612 198.966 128.724 198.023 130.281 196.343C131.838 194.664 132.713 192.386 132.713 190.011V190.011C132.713 187.636 131.838 185.358 130.281 183.678C128.724 181.999 126.612 181.055 124.41 181.055V181.055Z" fill="url(#paint0_linear)"/>
<path d="M379.184 181.055H365.425V137.353C365.425 135.032 364.57 132.806 363.049 131.165C361.527 129.523 359.463 128.601 357.311 128.601H354.087C353.022 128.601 351.966 128.828 350.982 129.267C349.998 129.707 349.103 130.352 348.35 131.165C347.596 131.977 346.999 132.942 346.591 134.004C346.183 135.066 345.973 136.204 345.973 137.353V181.055H307.164C306.366 181.055 305.581 180.833 304.886 180.409C304.191 179.985 303.609 179.375 303.197 178.638C302.785 177.9 302.557 177.06 302.534 176.199C302.512 175.339 302.696 174.486 303.069 173.725L344.144 89.8702C344.656 88.8248 344.966 87.6783 345.056 86.4998C345.146 85.3214 345.014 84.1356 344.667 83.0138C344.32 81.8921 343.766 80.8578 343.039 79.9733C342.311 79.0888 341.425 78.3725 340.434 77.8676L338.009 76.6326C336.127 75.6736 333.974 75.532 331.997 76.2371C330.02 76.9422 328.37 78.44 327.389 80.4206L277.293 181.504C276.44 183.225 275.993 185.147 275.993 187.099V187.099C275.993 190.246 277.153 193.265 279.216 195.49C281.279 197.716 284.078 198.966 286.996 198.966H345.973V226.601C345.973 229.383 346.998 232.051 348.822 234.019C350.646 235.986 353.12 237.091 355.699 237.091V237.091C358.279 237.091 360.752 235.986 362.576 234.019C364.4 232.051 365.425 229.383 365.425 226.601V198.966H379.184C381.386 198.966 383.498 198.023 385.055 196.343C386.612 194.664 387.486 192.386 387.486 190.011V190.011C387.486 187.636 386.612 185.358 385.055 183.678C383.498 181.999 381.386 181.055 379.184 181.055Z" fill="url(#paint1_linear)"/>
<path d="M128.206 175.938H114.447V132.236C114.447 131.087 114.237 129.948 113.83 128.887C113.422 127.825 112.824 126.86 112.071 126.047C111.317 125.235 110.423 124.59 109.438 124.15C108.454 123.71 107.399 123.484 106.333 123.484H103.109C100.957 123.484 98.8934 124.406 97.3717 126.047C95.8501 127.689 94.9952 129.915 94.9952 132.236V175.938H56.1865C55.3881 175.938 54.6033 175.715 53.9082 175.292C53.2131 174.868 52.6312 174.258 52.2191 173.52C51.807 172.783 51.5787 171.943 51.5562 171.082C51.5338 170.221 51.7179 169.369 52.0909 168.607L93.1656 84.7528C93.6777 83.7074 93.9881 82.5608 94.078 81.3824C94.168 80.204 94.0356 79.0181 93.6889 77.8964C93.3422 76.7747 92.7884 75.7404 92.0609 74.8559C91.3334 73.9714 90.4473 73.2551 89.4561 72.7502L87.0313 71.5152C85.1486 70.5562 82.9961 70.4145 81.0192 71.1196C79.0423 71.8247 77.3924 73.3225 76.4108 75.3032L26.3149 176.386C25.4618 178.108 25.0155 180.029 25.0155 181.981V181.981C25.0155 185.129 26.1747 188.147 28.2381 190.373C30.3014 192.599 33.1 193.849 36.018 193.849H94.9952V221.483C94.9952 222.861 95.2468 224.225 95.7355 225.498C96.2243 226.771 96.9407 227.927 97.8439 228.901C98.747 229.875 99.8192 230.648 100.999 231.175C102.179 231.703 103.444 231.974 104.721 231.974H104.721C107.301 231.974 109.775 230.869 111.598 228.901C113.422 226.934 114.447 224.265 114.447 221.483V193.849H128.206C129.296 193.849 130.376 193.617 131.383 193.167C132.39 192.717 133.306 192.057 134.077 191.226C134.848 190.394 135.459 189.407 135.877 188.32C136.294 187.234 136.509 186.069 136.509 184.893V184.893C136.509 183.717 136.294 182.553 135.877 181.466C135.459 180.38 134.848 179.392 134.077 178.561C133.306 177.729 132.39 177.07 131.383 176.619C130.376 176.169 129.296 175.938 128.206 175.938V175.938Z" stroke="#3F3D56" stroke-miterlimit="10"/>
<path d="M386.3 175.938H372.542V132.236C372.542 129.915 371.687 127.689 370.165 126.047C368.643 124.406 366.58 123.484 364.428 123.484H361.204C360.138 123.484 359.083 123.71 358.099 124.15C357.114 124.59 356.22 125.235 355.466 126.047C354.713 126.86 354.115 127.825 353.707 128.887C353.3 129.948 353.09 131.087 353.09 132.236V175.938H314.281C313.483 175.938 312.698 175.715 312.003 175.292C311.308 174.868 310.726 174.258 310.314 173.52C309.902 172.783 309.673 171.943 309.651 171.082C309.628 170.221 309.812 169.369 310.185 168.607L351.26 84.7528C351.772 83.7074 352.083 82.5608 352.173 81.3824C352.262 80.204 352.13 79.0181 351.783 77.8964C351.437 76.7747 350.883 75.7404 350.155 74.8559C349.428 73.9714 348.542 73.2551 347.551 72.7502L345.126 71.5152C343.243 70.5562 341.091 70.4145 339.114 71.1196C337.137 71.8247 335.487 73.3225 334.505 75.3032L284.409 176.386C283.556 178.108 283.11 180.029 283.11 181.981C283.11 185.129 284.269 188.147 286.333 190.373C288.396 192.599 291.194 193.849 294.113 193.849H353.09V221.483C353.09 224.265 354.114 226.934 355.938 228.901C357.762 230.869 360.236 231.974 362.816 231.974V231.974C365.395 231.974 367.869 230.869 369.693 228.901C371.517 226.934 372.542 224.265 372.542 221.483V193.849H386.3C387.391 193.849 388.47 193.617 389.478 193.167C390.485 192.717 391.4 192.057 392.171 191.226C392.942 190.394 393.554 189.407 393.971 188.32C394.388 187.234 394.603 186.069 394.603 184.893V184.893C394.603 182.518 393.728 180.24 392.171 178.561C390.614 176.881 388.502 175.938 386.3 175.938V175.938Z" stroke="#3F3D56" stroke-miterlimit="10"/>
<path d="M209.098 65.1448C175.82 65.1448 151.928 88.1734 151.928 141.907C151.928 202.805 175.82 218.925 209.098 218.925C242.375 218.925 267.691 201.269 267.691 141.907C267.691 78.4502 242.375 65.1448 209.098 65.1448ZM209.316 198.711C186.268 198.711 174.226 184.125 174.226 141.946C174.226 104.729 186.761 85.1029 209.809 85.1029C232.858 85.1029 245.392 97.9946 245.392 141.946C245.392 183.062 232.365 198.711 209.316 198.711V198.711Z" stroke="#3F3D56" stroke-miterlimit="10"/>
<path d="M182.424 13.0103C185.183 13.0103 187.419 10.598 187.419 7.62222C187.419 4.64646 185.183 2.23413 182.424 2.23413C179.665 2.23413 177.429 4.64646 177.429 7.62222C177.429 10.598 179.665 13.0103 182.424 13.0103Z" fill="#2F2E41"/>
<path d="M194.607 39.1622C202.346 39.1622 208.619 30.3954 208.619 19.5811C208.619 8.76675 202.346 0 194.607 0C186.869 0 180.596 8.76675 180.596 19.5811C180.596 30.3954 186.869 39.1622 194.607 39.1622Z" fill="#2F2E41"/>
<path opacity="0.1" d="M194.607 33.2485C187.589 33.2485 181.775 26.0356 180.755 16.6243C180.649 17.6057 180.596 18.593 180.596 19.5811C180.596 30.3955 186.869 39.1622 194.607 39.1622C202.346 39.1622 208.619 30.3955 208.619 19.5811C208.619 18.593 208.566 17.6057 208.46 16.6243C207.44 26.0356 201.626 33.2485 194.607 33.2485Z" fill="black"/>
<path d="M223.119 76.9252C222.818 78.2589 221.52 79.3271 220.083 80.0734C217.063 81.6424 213.336 82.1106 209.722 82.2677C208.8 82.3282 207.875 82.3097 206.956 82.2126C205.174 82.0267 203.503 81.1981 202.212 79.8607C202.12 79.7959 202.045 79.707 201.993 79.6023C201.942 79.4975 201.915 79.3804 201.917 79.2618C201.919 79.1432 201.948 79.0269 202.003 78.924C202.058 78.821 202.135 78.7346 202.229 78.6729C204.154 76.3931 207.364 74.9952 210.599 73.9886C213.052 73.2254 217.329 71.2485 220.004 71.5153C222.595 71.7737 223.498 75.2412 223.119 76.9252Z" fill="#3F3D56"/>
<path opacity="0.1" d="M223.119 76.9252C222.818 78.2589 221.52 79.3271 220.083 80.0734C217.063 81.6424 213.336 82.1106 209.722 82.2677C208.8 82.3282 207.875 82.3097 206.956 82.2126C205.174 82.0267 203.503 81.1981 202.212 79.8607C202.12 79.7959 202.045 79.707 201.993 79.6023C201.942 79.4975 201.915 79.3804 201.917 79.2618C201.919 79.1432 201.948 79.0269 202.003 78.924C202.058 78.821 202.135 78.7346 202.229 78.6729C204.154 76.3931 207.364 74.9952 210.599 73.9886C213.052 73.2254 217.329 71.2485 220.004 71.5153C222.595 71.7737 223.498 75.2412 223.119 76.9252Z" fill="black"/>
<path d="M184.709 66.9571C183.787 68.9064 183.62 71.1709 184.245 73.253C184.881 75.3193 186.071 77.1357 187.664 78.4722C191.572 81.8516 196.952 82.3166 201.961 82.2697C206.351 82.2285 210.735 81.9044 215.089 81.2992C216.548 81.1597 217.982 80.8006 219.349 80.2323C220.984 79.4694 222.42 78.07 223.002 76.254C223.584 74.438 223.171 72.2144 221.789 71.0024C220.574 69.9376 218.899 69.7911 217.337 69.6898L208.398 69.1104C209.281 68.1463 210.457 67.601 211.532 66.9001C212.959 65.9703 213.907 64.4091 214.945 63.0016C216.543 60.9408 218.283 59.0119 220.148 57.231C220.439 59.0312 221.495 60.5095 222.737 61.7516C223.98 62.9937 225.412 63.9937 226.704 65.1763C229.832 68.0406 232.084 71.9283 235.374 74.5734C237.637 73.932 239.752 72.7928 241.588 71.2272L240.309 68.7291C240.203 68.472 240.037 68.2487 239.827 68.0806C239.465 67.8404 238.999 67.9642 238.579 67.8962C237.455 67.7145 236.965 66.3158 236.524 65.1868C235.314 62.0872 232.998 59.6823 231.019 57.0829C229.559 55.1641 228.263 53.106 227.149 50.9341C226.484 49.6387 225.876 48.2899 224.974 47.1739C224.072 46.0579 222.808 45.1805 221.435 45.1774C220.222 45.1746 219.104 45.8387 218.061 46.5068C214.885 48.5416 211.83 50.7871 208.912 53.2304C207.385 54.5091 205.867 55.8601 204.076 56.6442C203.322 56.9743 202.527 57.1999 201.803 57.6015C200.536 58.305 199.574 59.4952 198.539 60.5518C194.846 64.3203 189.79 66.7619 184.709 66.9571Z" fill="#3F3D56"/>
<path d="M203.402 40.1347C203.36 41.2866 203.133 42.4219 202.73 43.4898C202.526 44.0224 202.223 44.5039 201.838 44.9043C201.454 45.3047 200.998 45.6155 200.497 45.8172C199.786 46.0225 199.041 46.0486 198.32 45.8934C197.691 45.8225 197.084 45.5997 196.546 45.2416C195.708 44.6199 195.29 43.5108 195.137 42.4253C194.985 41.3411 195.053 40.2333 194.956 39.1412C194.861 38.2591 194.705 37.3859 194.49 36.5286C194.425 36.2434 194.358 35.9596 194.292 35.6757C194.227 35.3919 194.164 35.108 194.105 34.8242C194.052 34.5574 194.002 34.2893 193.959 34.0199C193.924 33.7925 193.892 33.5639 193.869 33.3339C193.848 32.6521 193.742 31.9764 193.556 31.3245C193.381 30.9018 193.162 30.5019 192.903 30.1326C192.792 29.9617 192.685 29.7909 192.586 29.6135C192.301 29.1524 192.168 28.6009 192.21 28.0483C192.221 27.9629 192.241 27.8788 192.267 27.7973C192.277 27.7658 192.288 27.7342 192.3 27.704C192.409 27.6719 192.51 27.6114 192.593 27.5278C192.676 27.4442 192.739 27.34 192.776 27.2243C192.818 26.9757 192.798 26.7195 192.719 26.4818C192.628 26.1496 192.503 25.8292 192.347 25.5264C192.245 25.3266 191.898 24.9666 191.895 24.7379C191.89 24.2779 192.724 23.9073 193.061 23.726C194.092 23.1696 195.24 22.9183 196.39 22.9979C197.127 23.0518 197.926 23.2962 198.333 23.9625C198.699 24.5631 198.65 25.3411 198.806 26.0389C198.822 26.1404 198.862 26.2357 198.922 26.3162C199.001 26.3944 199.101 26.4439 199.208 26.4581C199.388 26.4969 199.573 26.5048 199.756 26.4818H199.757C199.806 26.4777 199.854 26.4702 199.901 26.4594C200.186 26.4028 200.455 26.2775 200.688 26.0928C200.839 26.0494 200.992 26.0139 201.145 25.9863C201.151 25.9857 201.158 25.9843 201.163 25.9824C201.774 28.0601 201.853 30.2876 202.353 32.4034C202.6 33.4561 202.954 34.4956 203.004 35.5785C203.008 35.6258 203.009 35.6744 203.011 35.723C203.018 36.0713 202.992 36.4221 203.006 36.7691C203.01 36.9253 203.027 37.0809 203.054 37.2343C203.109 37.481 203.177 37.7241 203.258 37.9624L203.261 37.9742C203.285 38.0504 203.307 38.1279 203.325 38.2055C203.338 38.262 203.35 38.3172 203.36 38.3737L203.361 38.3776C203.452 38.9583 203.465 39.5499 203.402 40.1347V40.1347Z" fill="#FBBEBE"/>
<path d="M194.851 26.5462C198.821 26.5462 202.039 23.0748 202.039 18.7927C202.039 14.5105 198.821 11.0391 194.851 11.0391C190.881 11.0391 187.663 14.5105 187.663 18.7927C187.663 23.0748 190.881 26.5462 194.851 26.5462Z" fill="#FBBEBE"/>
<path d="M240.488 61.0379C240.28 58.9225 239.583 56.8973 238.461 55.1478C238.648 56.3436 238.834 57.5391 239.022 58.7341C238.789 58.8068 238.542 58.8045 238.31 58.7277C238.078 58.6509 237.873 58.5029 237.718 58.3018C237.415 57.8941 237.184 57.4306 237.034 56.9337C236.218 54.7469 235.15 52.6794 233.856 50.7795C229.28 50.3681 224.756 48.322 220.732 45.9368C216.706 43.5528 212.939 40.6945 208.967 38.2095C208.279 37.7605 207.561 37.3652 206.82 37.0267C205.578 36.4892 204.183 36.2106 203.004 35.5785C202.925 35.5364 202.846 35.4917 202.768 35.4457C202.502 35.2896 202.25 35.107 202.015 34.9004C201.888 34.7893 201.768 34.6699 201.654 34.5429C201.067 33.8053 200.601 32.9643 200.276 32.0565C199.644 30.5478 199.419 28.7277 198.788 27.2191C199.078 26.9267 199.404 26.6786 199.756 26.4818H199.757C199.809 26.4529 199.86 26.4253 199.912 26.399C200.162 26.2722 200.422 26.1697 200.688 26.0928C200.839 26.0494 200.992 26.014 201.145 25.9864C201.151 25.9857 201.157 25.9844 201.163 25.9824C201.875 25.8573 202.605 25.9195 203.289 26.1638C204.291 26.5291 205.135 27.2585 205.977 27.9484C207.345 28.9878 208.657 30.1101 209.906 31.3101C210.601 32.0276 211.234 32.8161 211.981 33.4679C212.602 33.9846 213.256 34.4523 213.939 34.8675C217.98 37.4643 222.022 40.0606 226.064 42.6566C227.433 43.5358 228.802 44.4149 230.14 45.3454C232.172 46.7594 234.131 48.2917 236.089 49.8227C237.243 50.7242 238.396 51.6262 239.549 52.5286C239.927 52.7889 240.26 53.12 240.53 53.5063C240.769 53.945 240.917 54.434 240.965 54.9401C241.254 56.9848 241.091 59.0743 240.488 61.0379V61.0379Z" fill="#FBBEBE"/>
<path d="M205.184 45.9656C204.699 48.3114 202.501 49.7294 201.352 51.79C199.924 54.3474 200.507 57.32 201.043 60.2493C200.063 61.16 199.083 62.0707 198.103 62.9814C197.562 63.4821 197.021 63.9855 196.439 64.4283C195.589 65.0421 194.702 65.5918 193.783 66.0737C192.915 66.5547 192.048 67.0361 191.18 67.5179C190.374 68.007 189.519 68.3976 188.633 68.6823C186.923 69.1554 185.108 68.8242 183.417 68.2762C183.217 68.2198 183.026 68.1354 182.847 68.0252C182.741 67.9574 182.649 67.8676 182.576 67.7611C182.409 67.4387 182.349 67.0648 182.404 66.7005C182.576 63.6306 183.272 60.6251 183.965 57.642C184.336 55.8523 184.834 54.0962 185.455 52.3892C186.065 50.9267 186.765 49.5103 187.552 48.1497C188.42 46.4379 189.449 44.8267 190.622 43.3412C191.193 42.7695 191.674 42.101 192.045 41.3621C192.478 40.2976 192.311 39.0767 192.399 37.9176C192.466 37.0468 192.68 36.1965 193.031 35.4089V35.4076C193.219 34.9833 193.445 34.5801 193.706 34.2038C193.824 34.5008 193.942 34.7974 194.06 35.0935C194.138 35.288 194.216 35.4821 194.292 35.6757C194.392 35.9254 194.491 36.1742 194.589 36.4221C194.873 37.1344 195.157 37.8463 195.44 38.5577C195.746 39.4537 196.181 40.2916 196.731 41.0401C196.982 41.4234 197.321 41.7299 197.715 41.9296C198.109 42.1293 198.544 42.2154 198.978 42.1795C199.412 42.1436 199.83 41.9869 200.191 41.7248C200.552 41.4627 200.844 41.1041 201.038 40.684C201.448 39.8998 201.744 39.053 201.918 38.1726C202.158 37.1007 202.191 35.9867 202.015 34.9003C201.721 32.8082 200.897 30.6713 200.297 28.7277C200.053 28.0796 199.912 27.3919 199.879 26.6934C199.881 26.6148 199.888 26.5366 199.901 26.4594C199.905 26.4397 199.909 26.4187 199.912 26.399C200.162 26.2721 200.422 26.1697 200.688 26.0928C200.839 26.0494 200.992 26.0139 201.145 25.9863C201.673 29.0667 202.201 32.1471 202.73 35.2276C202.742 35.2998 202.756 35.3721 202.768 35.4457C202.844 35.8873 202.92 36.3288 203.006 36.7691C203.082 37.1686 203.165 37.5668 203.258 37.9623L203.261 37.9742C203.293 38.1082 203.326 38.2409 203.36 38.3737L203.361 38.3776C203.455 38.7403 203.56 39.1004 203.678 39.4552C204.395 41.5934 205.643 43.746 205.184 45.9656Z" fill="#5C368F"/>
<path d="M234.357 78.9314C234.334 79.3833 234.415 79.8342 234.593 80.2442C235.043 81.1311 236.123 81.3327 237.057 81.4156C242.513 81.8994 248.003 81.719 253.422 80.8778C253.716 80.8561 254.001 80.7606 254.255 80.5989C255.025 80.0163 254.55 78.5963 253.709 78.1417C252.868 77.6871 251.869 77.7967 250.946 77.5998C250.029 77.3508 249.156 76.9423 248.361 76.3903C246.488 75.2302 244.644 74.0206 242.826 72.7618C241.744 72.0122 240.467 71.2123 239.249 71.6567C235.948 72.8612 234.335 75.0906 234.357 78.9314Z" fill="#3F3D56"/>
<path d="M194.133 34.6599V34.6612C194.125 34.7164 194.116 34.7703 194.105 34.8242C194.092 34.9136 194.076 35.0042 194.06 35.0936C193.909 35.9281 193.724 36.7586 193.511 37.5839C192.926 39.864 192.143 42.1073 191.365 44.3177C189.28 50.2446 187.193 56.1719 185.107 62.0997C184.58 63.5926 184.055 65.0868 183.457 66.5495C183.257 67.037 183.051 67.5285 182.847 68.0253C182.113 69.8033 181.409 71.6392 181.175 73.5316C180.957 74.7771 180.932 76.0529 181.101 77.3072C181.335 78.5478 182.033 79.7595 183.126 80.2181C183.659 80.4429 184.423 80.7438 184.277 81.3417C184.198 81.6703 183.852 81.8306 183.541 81.8858C183.131 81.9563 182.711 81.9286 182.312 81.8046C181.913 81.6806 181.544 81.4634 181.231 81.1683C180.647 80.6098 180.199 79.7411 179.423 79.6478C178.886 79.5847 178.391 79.9316 177.899 80.1748C175.891 81.1643 173.552 80.4718 171.443 79.7687C171.608 78.8475 172.466 78.2403 173.318 78.0563C174.169 77.871 175.05 78.0025 175.919 77.9775C176.197 77.9935 176.473 77.9169 176.71 77.758C176.922 77.5481 177.07 77.2743 177.136 76.9721C177.696 75.1837 178.112 73.3468 178.38 71.4816C178.66 69.5326 178.777 67.5535 179.177 65.6283C179.488 64.1262 179.968 62.6714 180.379 61.1969C181.176 58.161 181.83 55.0837 182.339 51.9767C182.596 50.6859 182.78 49.3794 182.89 48.0644C182.96 46.9736 182.927 45.8776 183.024 44.7908C183.188 43.3769 183.462 41.9802 183.842 40.6157C184.215 39.1268 184.587 37.6387 184.959 36.1515C185.511 33.9502 186.103 31.6636 187.502 29.9526C187.988 29.3502 188.583 28.8618 189.251 28.5178C189.919 28.1737 190.645 27.9813 191.385 27.9524C191.662 27.952 191.939 27.9842 192.21 28.0483C192.255 28.0601 192.3 28.072 192.345 28.0851C192.64 28.1684 192.923 28.2948 193.187 28.461C193.618 28.1653 193.837 28.2691 194.124 28.7251C194.375 29.2077 194.493 29.7575 194.465 30.31C194.489 31.7683 194.378 33.2255 194.133 34.6599Z" fill="#FBBEBE"/>
<path d="M194.607 36.4024L194.589 36.4221L194.49 36.5286L193.511 37.5839L193.031 35.4089L191.385 27.9523C191.662 27.952 191.939 27.9841 192.21 28.0482C192.221 27.9628 192.241 27.8788 192.267 27.7972L192.345 28.085L192.903 30.1325L193.959 34.0198L194.133 34.6598V34.6611L194.607 36.4024Z" fill="#6C63FF"/>
<path d="M200.823 12.614C200.823 13.3045 200.696 13.988 200.45 14.6255C200.204 15.263 199.844 15.8419 199.391 16.3293C199.226 16.5067 199.05 16.6709 198.864 16.8206C198.023 17.5042 196.999 17.8743 195.946 17.8748H190.101C188.81 17.8727 187.572 17.3177 186.659 16.3318C185.746 15.346 185.234 14.0098 185.234 12.6166C185.234 11.2234 185.746 9.88723 186.659 8.90136C187.572 7.91549 188.81 7.36055 190.101 7.3584H195.946C197.238 7.36203 198.476 7.91675 199.39 8.90144C200.303 9.88613 200.819 11.2208 200.823 12.614V12.614Z" fill="#2F2E41"/>
<path d="M206.304 13.0103C209.063 13.0103 211.299 10.598 211.299 7.62222C211.299 4.64646 209.063 2.23413 206.304 2.23413C203.545 2.23413 201.308 4.64646 201.308 7.62222C201.308 10.598 203.545 13.0103 206.304 13.0103Z" fill="#2F2E41"/>
<path opacity="0.1" d="M206.182 2.23413C206.121 2.23413 206.06 2.23675 205.999 2.23911C207.291 2.28979 208.515 2.87912 209.412 3.88311C210.31 4.8871 210.812 6.22747 210.812 7.62222C210.812 9.01697 210.31 10.3573 209.412 11.3613C208.515 12.3653 207.291 12.9546 205.999 13.0053C206.06 13.0077 206.121 13.0103 206.182 13.0103C207.507 13.0103 208.777 12.4426 209.714 11.4322C210.651 10.4217 211.177 9.05123 211.177 7.62222C211.177 6.19321 210.651 4.82273 209.714 3.81227C208.777 2.8018 207.507 2.23413 206.182 2.23413V2.23413Z" fill="black"/>
<path opacity="0.1" d="M182.424 2.23413C182.485 2.23413 182.546 2.23675 182.607 2.23911C181.314 2.28979 180.091 2.87912 179.193 3.88311C178.296 4.8871 177.794 6.22747 177.794 7.62222C177.794 9.01697 178.296 10.3573 179.193 11.3613C180.091 12.3653 181.314 12.9546 182.607 13.0053C182.546 13.0077 182.485 13.0103 182.424 13.0103C181.1 13.009 179.83 12.4408 178.894 11.4305C177.959 10.4202 177.433 9.05041 177.433 7.62222C177.433 6.19403 177.959 4.82427 178.894 3.81394C179.83 2.80362 181.1 2.23539 182.424 2.23413Z" fill="black"/>
<path opacity="0.1" d="M198.864 16.8206C198.023 17.5042 196.999 17.8742 195.946 17.8748H190.101C189.048 17.8742 188.024 17.5042 187.183 16.8206H198.864Z" fill="black"/>
<path d="M236.61 55.8622C236.61 55.8622 237.869 59.7762 239.022 58.7341L238.103 53.618L236.61 55.8622Z" fill="#FBBEBE"/>
<path d="M389.853 175.222C391.026 175.682 392.282 175.842 393.522 175.689C394.762 175.536 395.952 175.074 396.999 174.341C398.045 173.607 398.919 172.621 399.552 171.461C400.185 170.301 400.559 168.998 400.646 167.655C400.732 166.312 400.528 164.966 400.05 163.722C399.572 162.479 398.833 161.372 397.89 160.49C396.948 159.607 395.828 158.973 394.62 158.636C393.411 158.3 392.147 158.271 390.927 158.552L391.128 163.026L389.166 159.191C387.24 160.168 385.752 161.929 385.029 164.087C384.772 164.844 384.616 165.635 384.566 166.439C384.442 168.324 384.891 170.201 385.845 171.786C386.799 173.371 388.206 174.577 389.853 175.222V175.222Z" fill="#57B894"/>
<path d="M399.563 227.111C398.871 223.307 401.872 219.933 404.837 217.741C407.802 215.548 411.267 213.394 412.278 209.673C413.732 204.326 409.401 199.429 406.031 195.206C403.53 192.071 401.382 188.629 399.633 184.949C398.931 183.474 398.287 181.932 398.102 180.286C397.837 177.916 398.543 175.557 399.254 173.296C401.623 165.764 404.157 158.295 406.854 150.889" stroke="#3F3D56" stroke-miterlimit="10"/>
<path d="M390.185 174.07C391.358 174.53 392.614 174.69 393.854 174.537C395.094 174.384 396.284 173.922 397.33 173.189C398.377 172.455 399.251 171.469 399.884 170.309C400.517 169.149 400.891 167.846 400.978 166.503C401.064 165.16 400.86 163.814 400.382 162.57C399.904 161.327 399.164 160.22 398.222 159.338C397.28 158.455 396.16 157.821 394.952 157.484C393.743 157.148 392.479 157.119 391.258 157.4L391.46 161.874L389.498 158.039C387.572 159.016 386.084 160.777 385.361 162.935C385.104 163.692 384.948 164.483 384.898 165.287C384.774 167.172 385.223 169.049 386.177 170.634C387.131 172.219 388.538 173.425 390.185 174.07V174.07Z" stroke="#3F3D56" stroke-miterlimit="10"/>
<path d="M398.578 149.344C399.039 147.974 399.811 146.751 400.825 145.788C401.838 144.825 403.061 144.152 404.378 143.832L405.042 148.085L406.272 143.619C407.98 143.646 409.636 144.258 411 145.366C412.365 146.475 413.367 148.022 413.863 149.786C414.359 151.549 414.323 153.436 413.759 155.176C413.196 156.915 412.134 158.416 410.728 159.462C409.322 160.509 407.645 161.046 405.937 160.997C404.229 160.947 402.581 160.314 401.229 159.188C399.876 158.062 398.891 156.502 398.415 154.732C397.938 152.963 397.996 151.076 398.578 149.344H398.578Z" fill="#57B894"/>
<path d="M399.021 147.808C399.481 146.439 400.254 145.216 401.267 144.252C402.281 143.289 403.503 142.616 404.821 142.297L405.484 146.55L406.715 142.083C408.423 142.11 410.078 142.722 411.443 143.831C412.807 144.939 413.81 146.487 414.306 148.25C414.802 150.013 414.765 151.9 414.202 153.64C413.638 155.379 412.577 156.88 411.171 157.927C409.765 158.973 408.087 159.51 406.38 159.461C404.672 159.412 403.023 158.778 401.671 157.652C400.319 156.526 399.334 154.966 398.857 153.197C398.381 151.427 398.438 149.54 399.021 147.808H399.021Z" stroke="#3F3D56" stroke-miterlimit="10"/>
<path d="M404.616 195.292C406.476 196.019 408.52 195.984 410.357 195.191C412.194 194.398 413.696 192.904 414.578 190.993C415.459 189.082 415.658 186.888 415.136 184.829C414.614 182.77 413.408 180.991 411.748 179.829L410.803 183.262L410.132 178.959C410.126 178.955 410.119 178.953 410.112 178.95C409.117 178.56 408.06 178.386 407.003 178.436C405.945 178.487 404.907 178.761 403.948 179.245C402.989 179.728 402.128 180.411 401.413 181.253C400.699 182.096 400.145 183.082 399.784 184.155C399.423 185.229 399.262 186.368 399.309 187.509C399.357 188.65 399.612 189.769 400.061 190.803C400.51 191.837 401.143 192.766 401.924 193.536C402.706 194.306 403.621 194.903 404.616 195.292H404.616Z" fill="#57B894"/>
<path d="M404.999 193.736C406.86 194.464 408.903 194.428 410.74 193.635C412.577 192.842 414.08 191.348 414.961 189.437C415.842 187.526 416.041 185.332 415.519 183.274C414.997 181.215 413.791 179.435 412.131 178.274L411.186 181.707L410.516 177.403C410.509 177.4 410.502 177.397 410.495 177.395C409.5 177.005 408.444 176.83 407.386 176.881C406.329 176.931 405.291 177.206 404.332 177.689C403.373 178.173 402.511 178.855 401.797 179.698C401.082 180.54 400.529 181.526 400.168 182.6C399.807 183.673 399.645 184.813 399.693 185.953C399.74 187.094 399.996 188.214 400.444 189.248C400.893 190.282 401.526 191.211 402.308 191.981C403.089 192.751 404.004 193.347 404.999 193.736H404.999Z" stroke="#3F3D56" stroke-miterlimit="10"/>
<path d="M396.227 209.727C396.546 211.69 397.482 213.474 398.877 214.781C400.272 216.088 402.041 216.838 403.888 216.905C405.735 216.973 407.547 216.353 409.02 215.15C410.494 213.947 411.539 212.234 411.98 210.299C412.422 208.363 412.233 206.323 411.445 204.52C410.658 202.717 409.319 201.261 407.655 200.396C405.99 199.531 404.1 199.31 402.302 199.769C400.504 200.229 398.907 201.341 397.78 202.92L401.37 208.749L396.464 205.655C396.084 206.972 396.002 208.368 396.227 209.727V209.727Z" fill="#57B894"/>
<path d="M396.559 208.575C396.878 210.538 397.814 212.322 399.209 213.629C400.604 214.937 402.373 215.687 404.22 215.754C406.067 215.821 407.879 215.201 409.352 213.998C410.825 212.795 411.87 211.082 412.312 209.147C412.754 207.212 412.565 205.171 411.777 203.368C410.99 201.565 409.651 200.109 407.987 199.244C406.322 198.379 404.432 198.158 402.634 198.618C400.836 199.077 399.239 200.189 398.111 201.768L401.702 207.597L396.796 204.503C396.416 205.82 396.334 207.217 396.559 208.575V208.575Z" stroke="#3F3D56" stroke-miterlimit="10"/>
<path d="M3.48764 196.396C4.25827 196.698 5.08344 196.803 5.89812 196.703C6.71279 196.602 7.49469 196.299 8.18219 195.817C8.86969 195.335 9.44399 194.687 9.85984 193.925C10.2757 193.163 10.5217 192.307 10.5785 191.424C10.6353 190.542 10.5013 189.658 10.1872 188.841C9.87297 188.024 9.38717 187.297 8.76803 186.717C8.14889 186.137 7.41334 185.72 6.61937 185.499C5.82539 185.278 4.99468 185.259 4.19272 185.443L4.32525 188.383L3.03594 185.864C1.77055 186.505 0.792988 187.662 0.31807 189.08C0.149407 189.577 0.046872 190.097 0.0135247 190.625C-0.0678572 191.864 0.227267 193.097 0.854173 194.139C1.48108 195.18 2.4056 195.972 3.48764 196.396V196.396Z" fill="#57B894"/>
<path d="M9.86721 230.488C9.41208 227.989 11.3842 225.772 13.3323 224.332C15.2803 222.891 17.5565 221.476 18.2212 219.031C19.1764 215.518 16.331 212.3 14.1163 209.526C12.4733 207.466 11.0623 205.205 9.91284 202.787C9.41312 201.838 9.07276 200.8 8.90742 199.723C8.73279 198.166 9.19665 196.616 9.66396 195.131C11.2207 190.182 12.8852 185.275 14.6573 180.409" stroke="#3F3D56" stroke-miterlimit="10"/>
<path d="M3.70569 195.639C4.47633 195.942 5.3015 196.047 6.11617 195.946C6.93083 195.846 7.71273 195.542 8.40023 195.06C9.08773 194.578 9.66203 193.931 10.0779 193.168C10.4937 192.406 10.7397 191.55 10.7965 190.668C10.8533 189.785 10.7194 188.901 10.4052 188.084C10.091 187.267 9.60521 186.54 8.98607 185.96C8.36693 185.38 7.63139 184.963 6.83741 184.742C6.04344 184.521 5.21273 184.502 4.41078 184.687L4.5433 187.626L3.25399 185.107C1.9886 185.748 1.01104 186.905 0.536118 188.324C0.367457 188.82 0.264924 189.341 0.231574 189.868C0.150187 191.107 0.445309 192.34 1.07222 193.382C1.69912 194.423 2.62365 195.216 3.70569 195.639V195.639Z" stroke="#3F3D56" stroke-miterlimit="10"/>
<path d="M9.22007 179.394C9.5225 178.494 10.0301 177.69 10.6961 177.058C11.362 176.425 12.165 175.983 13.0309 175.773L13.4668 178.567L14.275 175.632C15.3972 175.65 16.485 176.052 17.3815 176.78C18.278 177.509 18.9367 178.526 19.2625 179.684C19.5883 180.842 19.5644 182.082 19.1942 183.225C18.824 184.368 18.1267 185.354 17.2029 186.042C16.2792 186.729 15.1768 187.082 14.0549 187.05C12.933 187.017 11.8497 186.601 10.9613 185.862C10.073 185.122 9.4256 184.097 9.11262 182.934C8.79964 181.772 8.83726 180.532 9.22007 179.394V179.394Z" fill="#57B894"/>
<path d="M9.51078 178.385C9.81321 177.485 10.3208 176.681 10.9868 176.048C11.6527 175.416 12.4557 174.974 13.3216 174.764L13.7575 177.558L14.5657 174.623C15.6879 174.641 16.7758 175.043 17.6722 175.771C18.5687 176.5 19.2274 177.516 19.5532 178.675C19.879 179.833 19.8551 181.073 19.4849 182.216C19.1147 183.359 18.4174 184.345 17.4936 185.033C16.5699 185.72 15.4675 186.073 14.3456 186.041C13.2237 186.008 12.1404 185.592 11.252 184.853C10.3637 184.113 9.71631 183.088 9.40333 181.925C9.09035 180.763 9.12797 179.523 9.51078 178.385V178.385Z" stroke="#3F3D56" stroke-miterlimit="10"/>
<path d="M13.1869 209.582C14.4091 210.06 15.7516 210.037 16.9587 209.516C18.1657 208.995 19.1529 208.013 19.7319 206.758C20.311 205.502 20.4416 204.061 20.0987 202.708C19.7558 201.356 18.9634 200.186 17.8726 199.423L17.2516 201.679L16.8112 198.851C16.8069 198.849 16.8024 198.847 16.7978 198.846C16.144 198.589 15.4499 198.474 14.755 198.508C14.0601 198.541 13.378 198.721 12.7478 199.039C12.1175 199.356 11.5515 199.805 11.082 200.358C10.6125 200.912 10.2488 201.56 10.0116 202.265C9.77438 202.97 9.66836 203.719 9.69958 204.469C9.7308 205.218 9.89865 205.954 10.1935 206.633C10.4884 207.313 10.9046 207.923 11.4182 208.429C11.9318 208.935 12.5328 209.327 13.1869 209.582V209.582Z" fill="#57B894"/>
<path d="M13.4388 208.56C14.661 209.038 16.0035 209.015 17.2106 208.494C18.4176 207.973 19.4048 206.991 19.9839 205.736C20.5629 204.48 20.6935 203.039 20.3506 201.686C20.0077 200.334 19.2153 199.164 18.1245 198.401L17.5035 200.657L17.0631 197.829C17.0588 197.827 17.0543 197.825 17.0497 197.824C16.3961 197.568 15.7022 197.454 15.0077 197.487C14.3131 197.521 13.6315 197.701 13.0017 198.019C11.7298 198.661 10.7462 199.821 10.2674 201.245C9.78854 202.668 9.85367 204.239 10.4484 205.611C11.0432 206.983 12.1189 208.044 13.4388 208.56V208.56Z" stroke="#3F3D56" stroke-miterlimit="10"/>
<path d="M7.67499 219.066C7.88513 220.356 8.50001 221.528 9.41652 222.387C10.333 223.246 11.4954 223.739 12.7088 223.783C13.9221 223.827 15.1126 223.42 16.0806 222.629C17.0486 221.839 17.7352 220.714 18.0253 219.442C18.3154 218.171 18.1913 216.83 17.6739 215.646C17.1565 214.461 16.2772 213.504 15.1834 212.936C14.0897 212.368 12.8481 212.222 11.6667 212.524C10.4854 212.826 9.43628 213.557 8.69525 214.594L11.0542 218.424L7.83101 216.391C7.5811 217.257 7.52759 218.174 7.67499 219.066V219.066Z" fill="#57B894"/>
<path d="M7.89304 218.31C8.10318 219.599 8.71806 220.772 9.63457 221.631C10.5511 222.489 11.7135 222.982 12.9268 223.026C14.1402 223.07 15.3306 222.663 16.2986 221.873C17.2666 221.082 17.9533 219.957 18.2433 218.685C18.5334 217.414 18.4094 216.073 17.892 214.889C17.3745 213.704 16.4952 212.748 15.4015 212.179C14.3077 211.611 13.0661 211.466 11.8848 211.767C10.7035 212.069 9.65433 212.8 8.9133 213.838L11.2722 217.667L8.04905 215.635C7.79914 216.5 7.74564 217.417 7.89304 218.31V218.31Z" stroke="#3F3D56" stroke-miterlimit="10"/>
<path d="M186.22 142.465C189.856 142.465 192.803 138.351 192.803 133.276C192.803 128.202 189.856 124.088 186.22 124.088C182.585 124.088 179.638 128.202 179.638 133.276C179.638 138.351 182.585 142.465 186.22 142.465Z" fill="#2F2E41"/>
<path d="M222.036 142.673C225.671 142.673 228.618 138.56 228.618 133.485C228.618 128.411 225.671 124.297 222.036 124.297C218.401 124.297 215.454 128.411 215.454 133.485C215.454 138.56 218.401 142.673 222.036 142.673Z" fill="#2F2E41"/>
<path d="M217.002 160.632C217.002 164.783 211.628 168.15 204.999 168.15C198.37 168.15 192.996 164.783 192.996 160.632C192.996 157.036 197.027 154.029 202.413 153.294C203.27 153.172 204.134 153.112 204.999 153.114C206.448 153.109 207.894 153.277 209.309 153.616C213.808 154.697 217.002 157.433 217.002 160.632Z" fill="#2F2E41"/>
<path d="M187.769 140.376C191.404 140.376 194.351 136.263 194.351 131.188C194.351 126.114 191.404 122 187.769 122C184.134 122 181.187 126.114 181.187 131.188C181.187 136.263 184.134 140.376 187.769 140.376Z" stroke="#3F3D56" stroke-miterlimit="10"/>
<path d="M223.585 140.585C227.22 140.585 230.167 136.471 230.167 131.397C230.167 126.323 227.22 122.209 223.585 122.209C219.949 122.209 217.002 126.323 217.002 131.397C217.002 136.471 219.949 140.585 223.585 140.585Z" stroke="#3F3D56" stroke-miterlimit="10"/>
<path d="M206.548 166.061C213.177 166.061 218.551 162.696 218.551 158.544C218.551 154.392 213.177 151.026 206.548 151.026C199.919 151.026 194.545 154.392 194.545 158.544C194.545 162.696 199.919 166.061 206.548 166.061Z" stroke="#3F3D56" stroke-miterlimit="10"/>
<path d="M209.452 154.242C209.455 154.767 209.272 155.274 208.941 155.659C208.784 155.843 208.594 155.99 208.382 156.092C208.17 156.193 207.941 156.246 207.71 156.247H203.838C203.361 156.229 202.909 156.008 202.583 155.632C202.256 155.257 202.081 154.757 202.095 154.242C202.093 153.835 202.204 153.436 202.413 153.097C203.27 152.967 204.134 152.903 204.999 152.906C206.45 152.9 207.897 153.08 209.309 153.44C209.404 153.695 209.453 153.967 209.452 154.242V154.242Z" fill="white"/>
<path d="M187.769 130.771C188.838 130.771 189.705 129.836 189.705 128.682C189.705 127.529 188.838 126.594 187.769 126.594C186.7 126.594 185.833 127.529 185.833 128.682C185.833 129.836 186.7 130.771 187.769 130.771Z" fill="white"/>
<path d="M223.778 130.771C224.847 130.771 225.714 129.836 225.714 128.682C225.714 127.529 224.847 126.594 223.778 126.594C222.709 126.594 221.842 127.529 221.842 128.682C221.842 129.836 222.709 130.771 223.778 130.771Z" fill="white"/>
<path opacity="0.3" d="M225.714 150.4C226.783 150.4 227.65 149.465 227.65 148.311C227.65 147.158 226.783 146.223 225.714 146.223C224.645 146.223 223.778 147.158 223.778 148.311C223.778 149.465 224.645 150.4 225.714 150.4Z" fill="#6C63FF"/>
<path opacity="0.3" d="M178.476 150.4C179.546 150.4 180.412 149.465 180.412 148.311C180.412 147.158 179.546 146.223 178.476 146.223C177.407 146.223 176.54 147.158 176.54 148.311C176.54 149.465 177.407 150.4 178.476 150.4Z" fill="#6C63FF"/>
</g>
<defs>
<linearGradient id="paint0_linear" x1="76.9665" y1="75.7946" x2="76.9665" y2="237.091" gradientUnits="userSpaceOnUse">
<stop stop-color="#A2377D"/>
<stop offset="1" stop-color="#87307F"/>
</linearGradient>
<linearGradient id="paint1_linear" x1="331.74" y1="75.7946" x2="331.74" y2="237.091" gradientUnits="userSpaceOnUse">
<stop stop-color="#A6387D"/>
<stop offset="1" stop-color="#853080"/>
</linearGradient>
<clipPath id="clip0">
<rect width="416" height="244" fill="white"/>
</clipPath>
</defs>
</svg>
